<?xml version="1.0" standalone="no"?><!DOCTYPE svg PUBLIC "-//W3C//DTD SVG 1.1//EN" "http://www.w3.org/Graphics/SVG/1.1/DTD/svg11.dtd"><svg class="icon" width="200px" height="200.00px" viewBox="0 0 1024 1024" version="1.1" xmlns="http://www.w3.org/2000/svg"><path d="M357.5808 749.7728c26.4192 17.6128 58.6752 24.1664 90.112 17.6128 30.72-6.4512 58.6752-21.6064 80.9984-43.8272 22.2208-22.2208 37.376-50.2784 43.8272-80.9984 2.8672-13.5168 3.2768-27.136 1.4336-40.3456 13.2096 1.8432 26.8288 1.4336 40.3456-1.4336 30.72-6.4512 58.6752-21.6064 80.9984-43.8272 22.2208-22.2208 37.376-50.2784 43.8272-80.9984 2.8672-13.4144 3.2768-27.136 1.4336-40.3456 13.2096 1.8432 26.8288 1.4336 40.3456-1.4336 30.72-6.4512 58.6752-21.6064 80.9984-43.8272 22.2208-22.2208 37.376-50.2784 43.8272-80.9984 6.5536-31.4368 0-63.6928-17.6128-90.112L357.5808 749.7728z" fill="#FFEEC7" /><path d="M872.7552 200.704L823.296 151.1424c-14.2336-14.2336-31.9488-24.7808-51.2-30.4128-19.3536-5.7344-39.936-6.3488-59.5968-2.048-29.9008 6.656-57.2416 21.7088-78.9504 43.4176-21.7088 21.7088-36.7616 49.0496-43.4176 78.9504-3.072 13.9264-3.584 28.3648-1.6384 42.496-14.1312-1.9456-28.5696-1.4336-42.496 1.6384-29.9008 6.656-57.2416 21.6064-78.9504 43.4176-21.7088 21.7088-36.7616 49.0496-43.4176 78.9504-3.072 13.9264-3.584 28.3648-1.6384 42.496-14.1312-1.9456-28.5696-1.4336-42.496 1.6384-29.9008 6.656-57.2416 21.6064-78.9504 43.4176s-36.7616 49.0496-43.4176 78.9504c-4.4032 19.6608-3.6864 40.2432 2.048 59.5968 5.632 19.2512 16.1792 36.9664 30.4128 51.2l49.5616 49.4592c5.7344 5.7344 11.9808 10.8544 18.6368 15.2576l530.432-530.432c-4.608-6.4512-9.6256-12.6976-15.4624-18.432z" fill="#FDF7E5" /><path d="M856.064 240.4352c1.3312 9.216 1.1264 18.6368-0.8192 28.0576-4.9152 23.3472-16.4864 44.7488-33.3824 61.6448-16.9984 16.9984-38.2976 28.5696-61.6448 33.3824-5.3248 1.1264-10.752 1.6384-16.1792 1.6384-21.2992 0-42.2912-8.8064-57.6512-24.064L636.928 291.5328c-3.8912-3.8912-7.3728-8.0896-10.3424-12.4928 2.56 16.9984 10.4448 32.9728 23.1424 45.6704l49.4592 49.5616c15.36 15.36 36.352 24.064 57.6512 24.064 5.4272 0 10.8544-0.512 16.1792-1.6384 23.3472-4.9152 44.7488-16.4864 61.6448-33.3824s28.5696-38.2976 33.3824-61.6448c4.5056-21.2992 0-43.2128-11.9808-61.2352zM688.64 434.9952c-4.9152 23.3472-16.4864 44.7488-33.3824 61.6448-16.9984 16.9984-38.2976 28.5696-61.6448 33.3824-5.3248 1.1264-10.752 1.6384-16.1792 1.6384-21.2992 0-42.2912-8.8064-57.6512-24.064l-49.5616-49.5616c-3.8912-3.8912-7.2704-8.0896-10.3424-12.4928 2.56 16.9984 10.4448 32.9728 23.1424 45.6704l49.4592 49.5616c15.36 15.36 36.352 24.064 57.6512 24.064 5.4272 0 10.8544-0.512 16.1792-1.6384 23.3472-4.9152 44.7488-16.4864 61.6448-33.3824 16.9984-16.9984 28.5696-38.2976 33.3824-61.6448 4.4032-21.2992 0-43.2128-12.0832-61.1328 1.6384 9.216 1.3312 18.6368-0.6144 27.9552zM522.1376 601.6c-4.9152 23.3472-16.4864 44.7488-33.3824 61.6448-16.9984 16.9984-38.2976 28.5696-61.6448 33.3824-5.3248 1.1264-10.752 1.6384-16.1792 1.6384-21.2992 0-42.2912-8.8064-57.6512-24.064l-49.5616-49.4592c-3.8912-3.8912-7.2704-8.0896-10.3424-12.4928 2.56 16.9984 10.4448 32.9728 23.1424 45.6704l49.5616 49.4592c15.36 15.36 36.352 24.064 57.6512 24.064 5.4272 0 10.8544-0.512 16.1792-1.6384 23.3472-4.9152 44.7488-16.4864 61.6448-33.3824s28.5696-38.2976 33.3824-61.6448c4.4032-21.2992 0-43.2128-12.0832-61.1328 1.4336 9.1136 1.2288 18.5344-0.7168 27.9552z" fill="#BF000A" /><path d="M686.2848 341.1968c15.36 15.36 36.352 24.064 57.6512 24.064 5.4272 0 10.8544-0.512 16.1792-1.6384 23.3472-4.9152 44.7488-16.4864 61.6448-33.3824s28.5696-38.2976 33.3824-61.6448c1.9456-9.3184 2.1504-18.8416 0.8192-28.0576-2.9696-4.5056-6.4512-8.704-10.3424-12.6976l-49.4592-49.5616c-15.2576-15.2576-36.352-24.064-57.856-24.064-5.8368 0-11.776 0.6144-17.5104 1.9456-22.7328 5.0176-43.6224 16.4864-60.2112 33.0752s-28.0576 37.376-33.0752 60.2112c-2.2528 9.9328-2.4576 19.968-1.024 29.696 2.9696 4.5056 6.4512 8.704 10.3424 12.4928l49.4592 49.5616zM519.7824 507.6992c15.2576 15.36 36.352 24.064 57.6512 24.064 5.4272 0 10.8544-0.512 16.1792-1.6384 23.3472-4.9152 44.7488-16.4864 61.6448-33.3824 16.9984-16.9984 28.5696-38.2976 33.3824-61.6448 1.9456-9.3184 2.1504-18.8416 0.8192-28.0576-2.9696-4.5056-6.4512-8.704-10.3424-12.6976l-49.4592-49.5616c-15.2576-15.2576-36.352-24.064-57.856-24.064-5.8368 0-11.776 0.6144-17.5104 1.9456-22.7328 5.0176-43.6224 16.4864-60.2112 33.0752s-28.0576 37.376-33.0752 60.2112c-2.1504 9.9328-2.4576 19.968-1.024 29.696 2.9696 4.5056 6.4512 8.704 10.3424 12.4928l49.4592 49.5616zM353.28 674.304c15.36 15.36 36.352 24.064 57.6512 24.064 5.4272 0 10.8544-0.512 16.1792-1.6384 23.3472-4.9152 44.7488-16.4864 61.6448-33.3824 16.9984-16.9984 28.5696-38.2976 33.3824-61.6448 1.9456-9.3184 2.1504-18.8416 0.8192-28.0576-2.9696-4.5056-6.4512-8.704-10.3424-12.5952l-49.5616-49.5616c-15.2576-15.2576-36.352-24.064-57.856-24.064-5.8368 0-11.776 0.6144-17.5104 1.9456-22.7328 5.0176-43.6224 16.4864-60.2112 33.0752s-28.0576 37.376-33.0752 60.2112c-2.1504 9.9328-2.4576 19.968-1.024 29.696 2.9696 4.4032 6.4512 8.704 10.3424 12.4928l49.5616 49.4592z" fill="#E01E22" /><path d="M120.6272 880.5376c-6.3488 6.3488-6.3488 16.4864 0 22.8352s16.4864 6.3488 22.8352 0L325.632 721.2032 302.7968 698.368 120.6272 880.5376zM889.856 134.0416c-6.3488-6.3488-16.4864-6.3488-22.8352 0L836.608 164.5568l22.8352 22.8352 30.5152-30.5152c6.2464-6.3488 6.2464-16.4864-0.1024-22.8352z" fill="#FFD14F" /><path d="M807.424 291.2256c0 5.5296 4.4032 9.9328 9.9328 9.9328s9.9328-4.5056 9.9328-9.9328-9.9328-19.8656-9.9328-19.8656-9.9328 14.4384-9.9328 19.8656zM732.8768 207.5648c0-5.5296-4.4032-9.9328-9.9328-9.9328s-9.9328 4.5056-9.9328 9.9328 9.9328 19.8656 9.9328 19.8656 9.9328-14.336 9.9328-19.8656zM764.416 281.6c-5.4272-0.7168-10.4448 3.072-11.264 8.4992s3.072 10.4448 8.4992 11.264 21.0944-7.168 21.0944-7.168-12.9024-11.776-18.3296-12.5952zM523.776 385.1264c0 5.5296 4.5056 9.9328 9.9328 9.9328s9.9328-4.5056 9.9328-9.9328-9.9328-19.8656-9.9328-19.8656-9.9328 14.4384-9.9328 19.8656zM646.8608 459.0592c-3.6864-4.096-9.9328-4.4032-14.0288-0.8192s-4.4032 9.9328-0.8192 14.0288c3.6864 4.096 20.6848 8.192 20.6848 8.192s-2.1504-17.3056-5.8368-21.4016zM452.1984 546.6112c1.024-5.4272-2.56-10.6496-7.8848-11.6736s-10.6496 2.56-11.6736 7.8848c-1.024 5.4272 6.0416 21.4016 6.0416 21.4016s12.4928-12.1856 13.5168-17.6128zM445.5424 684.4416c4.8128-2.7648 6.4512-8.8064 3.7888-13.5168s-8.8064-6.4512-13.5168-3.7888-12.3904 18.432-12.3904 18.432 17.408 1.6384 22.1184-1.1264zM508.416 431.4112c-5.4272-0.7168-10.4448 3.072-11.264 8.4992s3.072 10.4448 8.4992 11.264 21.0944-7.168 21.0944-7.168-12.8-11.8784-18.3296-12.5952z" fill="#FDF7E5" /><path d="M799.0272 175.4112c-16.0768-16.0768-38.1952-25.1904-60.7232-25.1904-6.144 0-12.3904 0.7168-18.432 2.048-23.552 5.2224-45.056 17.1008-62.1568 34.2016-17.1008 17.1008-28.9792 38.6048-34.2016 62.1568-6.3488 28.672 2.3552 58.1632 23.2448 79.0528l49.4592 49.5616c16.0768 16.0768 38.0928 25.2928 60.5184 25.2928 5.7344 0 11.4688-0.6144 16.9984-1.7408 24.1664-5.0176 46.1824-16.9984 63.7952-34.5088 17.5104-17.5104 29.4912-39.6288 34.5088-63.7952 5.8368-27.9552-2.9696-56.9344-23.552-77.5168l-49.4592-49.5616z m65.024 125.3376c-4.7104 22.6304-15.872 43.2128-32.256 59.5968s-37.0688 27.5456-59.5968 32.256c-5.0176 1.024-10.1376 1.536-15.36 1.536-20.2752 0-40.1408-8.2944-54.784-22.8352l-49.4592-49.5616c-18.944-18.944-26.7264-45.6704-20.992-71.5776 4.9152-22.016 15.9744-42.0864 31.9488-58.1632 16.0768-16.0768 36.1472-27.136 58.1632-31.9488 5.4272-1.2288 11.0592-1.8432 16.5888-1.8432 20.3776 0 40.448 8.2944 54.8864 22.8352l49.4592 49.5616c18.7392 18.7392 26.7264 44.9536 21.4016 70.144z m-231.5264 41.1648c-16.0768-16.0768-38.1952-25.1904-60.7232-25.1904-6.144 0-12.3904 0.7168-18.432 2.048-23.552 5.2224-45.056 17.1008-62.1568 34.2016-17.1008 17.1008-28.9792 38.6048-34.2016 62.1568-6.3488 28.672 2.3552 58.1632 23.2448 79.0528l49.4592 49.5616c16.0768 16.0768 38.0928 25.2928 60.5184 25.2928 5.7344 0 11.4688-0.6144 16.9984-1.7408 24.1664-5.0176 46.1824-16.9984 63.7952-34.5088s29.4912-39.6288 34.5088-63.7952c5.8368-27.9552-2.9696-56.9344-23.552-77.5168l-49.4592-49.5616z m65.024 125.44c-4.7104 22.6304-15.872 43.2128-32.256 59.5968s-37.0688 27.5456-59.5968 32.256c-5.0176 1.024-10.1376 1.536-15.36 1.536-20.2752 0-40.2432-8.2944-54.784-22.8352L485.9904 488.448c-18.944-18.944-26.7264-45.6704-20.992-71.5776 4.9152-22.016 15.9744-42.0864 31.9488-58.1632 16.0768-16.0768 36.1472-27.136 58.1632-31.9488 5.4272-1.2288 11.0592-1.8432 16.5888-1.8432 20.3776 0 40.448 8.2944 54.8864 22.8352l49.4592 49.4592c18.7392 18.6368 26.7264 44.8512 21.504 70.144zM423.5264 780.0832z m456.4992-586.6496l-6.144-6.144 23.2448-23.2448c10.24-10.24 10.24-27.0336 0-37.2736-5.0176-5.0176-11.5712-7.68-18.6368-7.68s-13.6192 2.7648-18.6368 7.68L836.608 150.016l-6.144-6.144c-15.4624-15.4624-34.6112-26.8288-55.5008-32.9728-20.992-6.144-43.4176-6.9632-64.7168-2.2528-31.8464 7.0656-60.8256 23.04-83.968 46.1824s-39.1168 52.224-46.1824 83.968c-2.4576 10.9568-3.3792 22.2208-2.9696 33.3824-11.264-0.512-22.4256 0.512-33.3824 2.9696-31.8464 7.0656-60.8256 23.04-83.968 46.1824s-39.1168 52.224-46.1824 83.968c-2.4576 10.9568-3.3792 22.2208-2.9696 33.3824-11.264-0.512-22.4256 0.512-33.3824 2.9696-31.8464 7.0656-60.8256 23.04-83.968 46.1824s-39.1168 52.224-46.1824 83.968c-4.7104 21.2992-3.9936 43.7248 2.1504 64.7168 6.144 20.8896 17.5104 40.1408 32.9728 55.5008l6.144 6.144-175.0016 175.104c-5.0176 5.0176-7.68 11.5712-7.68 18.6368 0 7.0656 2.7648 13.6192 7.68 18.6368 5.12 5.12 11.8784 7.68 18.6368 7.68s13.5168-2.56 18.6368-7.68l174.8992-174.8992 6.144 6.144c24.8832 24.8832 57.856 38.4 91.8528 38.4 8.704 0 17.5104-0.9216 26.3168-2.7648 32.6656-6.8608 62.464-22.9376 86.1184-46.592 23.6544-23.6544 39.8336-53.4528 46.592-86.1184 2.1504-10.3424 3.072-20.6848 2.6624-31.1296 10.4448 0.4096 20.8896-0.512 31.1296-2.6624 32.6656-6.8608 62.464-22.9376 86.1184-46.592 23.6544-23.6544 39.8336-53.4528 46.592-86.1184 2.1504-10.3424 3.072-20.6848 2.6624-31.1296 10.4448 0.4096 20.8896-0.512 31.1296-2.6624 32.6656-6.8608 62.464-22.9376 86.1184-46.592 23.6544-23.6544 39.8336-53.4528 46.592-86.1184 9.0112-42.9056-4.3008-87.04-35.5328-118.272z m-5.632-52.1216c1.1264-1.1264 2.56-1.7408 4.1984-1.7408s3.072 0.6144 4.1984 1.7408c2.2528 2.2528 2.2528 6.0416 0 8.2944l-23.2448 23.2448-8.2944-8.2944 23.1424-23.2448zM136.192 896.1024c-2.2528 2.2528-6.0416 2.2528-8.2944 0-1.1264-1.1264-1.7408-2.56-1.7408-4.1984s0.6144-3.072 1.7408-4.1984l174.8992-174.8992 8.2944 8.2944L136.192 896.1024z m759.3984-588.6976c-6.0416 28.7744-20.1728 54.9888-41.0624 75.776-20.8896 20.8896-47.104 35.0208-75.776 41.0624-12.1856 2.56-24.576 2.9696-36.864 1.2288-3.1744-0.4096-6.3488 0.6144-8.6016 2.8672-2.2528 2.2528-3.3792 5.4272-2.8672 8.6016 1.7408 12.288 1.2288 24.6784-1.2288 36.864-6.0416 28.7744-20.1728 54.9888-41.0624 75.776-20.8896 20.8896-47.104 35.0208-75.776 41.0624-12.1856 2.56-24.576 2.9696-36.864 1.2288-3.1744-0.4096-6.3488 0.6144-8.6016 2.8672s-3.3792 5.4272-2.8672 8.6016c1.7408 12.288 1.2288 24.6784-1.2288 36.864-6.0416 28.7744-20.1728 54.9888-41.0624 75.776-20.8896 20.8896-47.104 35.0208-75.776 41.0624-35.9424 7.4752-73.1136-3.6864-99.4304-30.1056l-13.312-13.312-0.1024-0.1024-0.1024-0.1024-22.8352-22.2208-0.1024-0.1024-0.1024-0.1024-13.2096-13.2096c-13.0048-13.0048-22.6304-29.184-27.8528-46.7968-5.2224-17.7152-5.8368-36.5568-1.8432-54.4768 6.2464-28.0576 20.2752-53.5552 40.6528-73.9328 20.3776-20.3776 45.9776-34.4064 73.9328-40.6528 7.7824-1.7408 15.5648-2.56 23.552-2.56 5.12 0 10.24 0.3072 15.36 1.024 3.1744 0.4096 6.3488-0.6144 8.704-2.8672 2.2528-2.2528 3.3792-5.4272 2.8672-8.704-1.8432-13.1072-1.3312-26.112 1.536-38.912 6.2464-28.0576 20.2752-53.5552 40.6528-73.9328 20.3776-20.3776 45.9776-34.4064 73.9328-40.6528 12.6976-2.8672 25.8048-3.2768 38.912-1.536 3.1744 0.4096 6.3488-0.6144 8.704-2.8672 2.2528-2.2528 3.3792-5.5296 2.8672-8.704-1.8432-13.0048-1.3312-26.112 1.536-38.8096 6.2464-27.9552 20.2752-53.5552 40.6528-73.9328 20.3776-20.3776 45.9776-34.4064 73.9328-40.6528 17.92-3.9936 36.7616-3.3792 54.4768 1.8432 17.6128 5.2224 33.792 14.848 46.7968 27.8528l49.4592 49.5616c26.2144 26.2144 37.4784 63.3856 30.0032 99.328zM465.92 508.5184c-16.0768-16.0768-38.1952-25.1904-60.7232-25.1904-6.144 0-12.3904 0.7168-18.432 2.048-23.552 5.2224-45.056 16.9984-62.1568 34.2016-17.1008 17.1008-28.9792 38.6048-34.2016 62.1568-6.3488 28.672 2.3552 58.1632 23.2448 79.0528l49.5616 49.4592c16.0768 16.0768 38.0928 25.2928 60.5184 25.2928 5.7344 0 11.3664-0.6144 16.9984-1.7408 24.1664-5.0176 46.1824-16.9984 63.7952-34.5088s29.4912-39.6288 34.5088-63.7952c5.8368-27.9552-2.9696-56.9344-23.552-77.5168L465.92 508.5184zM530.944 633.856c-4.7104 22.6304-15.872 43.2128-32.256 59.5968s-37.0688 27.5456-59.5968 32.256c-5.0176 1.024-10.1376 1.536-15.36 1.536-20.2752 0-40.1408-8.2944-54.784-22.8352L319.488 654.9504c-18.944-18.944-26.7264-45.6704-20.992-71.5776 4.9152-22.016 15.9744-42.0864 31.9488-58.1632 16.0768-16.0768 36.1472-27.136 58.1632-31.9488 5.4272-1.2288 11.0592-1.8432 16.5888-1.8432 20.3776 0 40.448 8.2944 54.8864 22.8352l49.4592 49.5616c18.7392 18.6368 26.7264 44.8512 21.4016 70.0416z m-107.2128 101.6832zM817.3568 267.264c-1.3312 0-2.56 0.7168-3.3792 1.7408-2.56 3.584-10.6496 15.9744-10.6496 22.2208 0 7.7824 6.3488 14.0288 14.0288 14.0288 7.7824 0 14.0288-6.3488 14.0288-14.0288 0-6.2464-8.192-18.6368-10.6496-22.2208-0.8192-1.1264-2.048-1.7408-3.3792-1.7408z m0 29.7984c-3.1744 0-5.8368-2.6624-5.8368-5.8368 0-1.8432 2.6624-7.168 5.8368-12.3904 3.1744 5.2224 5.8368 10.5472 5.8368 12.3904 0 3.2768-2.6624 5.8368-5.8368 5.8368zM722.944 193.536c-7.7824 0-14.0288 6.3488-14.0288 14.0288 0 6.2464 8.192 18.6368 10.6496 22.2208 0.8192 1.1264 2.048 1.7408 3.3792 1.7408s2.56-0.7168 3.3792-1.7408c2.56-3.6864 10.6496-15.9744 10.6496-22.2208 0-7.7824-6.2464-14.0288-14.0288-14.0288z m0 26.4192c-3.1744-5.2224-5.8368-10.5472-5.8368-12.3904 0-3.2768 2.6624-5.8368 5.8368-5.8368s5.8368 2.6624 5.8368 5.8368c0 1.8432-2.6624 7.168-5.8368 12.3904z m41.984 57.6512c-3.6864-0.512-7.3728 0.512-10.4448 2.7648-2.9696 2.2528-4.9152 5.5296-5.4272 9.3184s0.4096 7.3728 2.7648 10.4448c2.2528 2.9696 5.5296 4.9152 9.3184 5.4272 0.4096 0.1024 0.8192 0.1024 1.2288 0.1024 6.656 0 18.5344-5.7344 22.2208-7.5776 1.2288-0.6144 2.048-1.7408 2.2528-3.072 0.2048-1.3312-0.3072-2.6624-1.3312-3.584-3.2768-3.1744-14.336-13.0048-20.5824-13.824z m-2.6624 19.6608c-1.536-0.2048-2.9696-1.024-3.8912-2.2528-0.9216-1.2288-1.3312-2.7648-1.1264-4.3008 0.2048-1.536 1.024-2.9696 2.2528-3.8912 1.024-0.8192 2.2528-1.2288 3.4816-1.2288h0.8192c1.8432 0.2048 6.7584 3.584 11.4688 7.4752-5.5296 2.56-11.1616 4.5056-13.0048 4.1984z m0.1024 8.192z m-228.6592 55.7056c-1.3312 0-2.56 0.7168-3.3792 1.7408-2.56 3.584-10.6496 15.9744-10.6496 22.2208 0 7.7824 6.3488 14.0288 14.0288 14.0288 7.7824 0 14.0288-6.3488 14.0288-14.0288 0-6.2464-8.192-18.6368-10.6496-22.2208-0.7168-1.1264-1.9456-1.7408-3.3792-1.7408z m0 29.9008c-3.1744 0-5.8368-2.6624-5.8368-5.8368 0-1.8432 2.6624-7.168 5.8368-12.3904 3.1744 5.2224 5.8368 10.5472 5.8368 12.3904 0.1024 3.1744-2.56 5.8368-5.8368 5.8368z m116.224 65.3312c-2.4576-2.7648-5.9392-4.4032-9.728-4.608s-7.3728 1.024-10.1376 3.584-4.4032 5.9392-4.608 9.728c-0.2048 3.7888 1.024 7.3728 3.584 10.1376 4.1984 4.7104 18.5344 8.3968 22.8352 9.4208 0.3072 0.1024 0.6144 0.1024 0.9216 0.1024 1.024 0 1.9456-0.4096 2.7648-1.024 1.024-0.9216 1.536-2.2528 1.3312-3.584-0.6144-4.5056-2.7648-19.1488-6.9632-23.7568z m-14.848 13.2096c-1.024-1.1264-1.536-2.6624-1.536-4.1984 0.1024-1.536 0.8192-2.9696 1.9456-4.096 1.1264-0.9216 2.4576-1.536 3.8912-1.536h0.3072c1.536 0.1024 2.9696 0.8192 4.096 1.9456 1.2288 1.4336 2.7648 7.0656 3.8912 13.1072-5.8368-1.6384-11.264-3.7888-12.5952-5.2224z m-190.0544 61.3376c-3.6864-0.7168-7.3728 0.1024-10.5472 2.1504-3.072 2.1504-5.2224 5.3248-5.9392 9.0112-1.1264 6.144 4.5056 19.7632 6.3488 23.8592 0.512 1.2288 1.6384 2.1504 2.9696 2.3552 0.2048 0 0.512 0.1024 0.7168 0.1024 1.024 0 2.048-0.4096 2.8672-1.1264 3.1744-3.072 13.5168-13.6192 14.6432-19.8656 0.7168-3.6864-0.1024-7.3728-2.1504-10.5472s-5.2224-5.2224-8.9088-5.9392z m3.1744 14.9504c-0.3072 1.8432-3.9936 6.5536-8.0896 11.0592-2.1504-5.7344-3.7888-11.4688-3.3792-13.312 0.3072-1.536 1.2288-2.8672 2.4576-3.7888 1.024-0.6144 2.1504-1.024 3.2768-1.024 0.4096 0 0.7168 0 1.1264 0.1024 1.536 0.3072 2.8672 1.1264 3.7888 2.4576 0.7168 1.4336 1.1264 2.9696 0.8192 4.5056z m-9.5232 22.528z m-4.9152 95.1296c-5.4272 3.072-12.1856 16.2816-14.1312 20.2752-0.6144 1.2288-0.512 2.6624 0.1024 3.7888 0.7168 1.1264 1.8432 1.9456 3.1744 2.048 1.9456 0.2048 6.0416 0.512 10.4448 0.512 5.3248 0 11.1616-0.4096 14.2336-2.1504 6.7584-3.7888 9.1136-12.3904 5.3248-19.1488-3.8912-6.7584-12.4928-9.1136-19.1488-5.3248z m9.728 17.408c-1.6384 0.9216-7.5776 1.2288-13.6192 1.024 2.9696-5.3248 6.2464-10.24 7.8848-11.1616 2.8672-1.6384 6.3488-0.6144 7.9872 2.2528 1.536 2.6624 0.6144 6.2464-2.2528 7.8848z m65.536-253.6448c-3.6864-0.512-7.3728 0.512-10.4448 2.7648-2.9696 2.2528-4.9152 5.5296-5.4272 9.3184s0.512 7.3728 2.7648 10.4448c2.2528 2.9696 5.5296 4.9152 9.3184 5.4272 0.4096 0.1024 0.8192 0.1024 1.2288 0.1024 6.656 0 18.5344-5.7344 22.2208-7.5776 1.2288-0.6144 2.048-1.7408 2.2528-3.072 0.2048-1.3312-0.3072-2.6624-1.3312-3.584-3.2768-3.1744-14.336-12.9024-20.5824-13.824z m-2.6624 19.7632c-1.536-0.2048-2.9696-1.024-3.8912-2.2528-0.9216-1.2288-1.3312-2.7648-1.1264-4.3008 0.2048-1.536 1.024-2.9696 2.2528-3.8912 1.024-0.8192 2.2528-1.2288 3.4816-1.2288h0.8192c1.8432 0.2048 6.7584 3.584 11.4688 7.4752-5.632 2.56-11.1616 4.4032-13.0048 4.1984z m0.1024 8.192z"  /></svg>